<svg xmlns="http://www.w3.org/2000/svg" viewBox="0 0 500 590" role="img" aria-label="Stage map background">
  <defs>
    <linearGradient id="sky" x1="0" x2="0" y1="0" y2="1">
      <stop offset="0" stop-color="#70d7ff"/>
      <stop offset="1" stop-color="#e9fbff"/>
    </linearGradient>
    <linearGradient id="grass" x1="0" x2="0" y1="0" y2="1">
      <stop offset="0" stop-color="#7be07e"/>
      <stop offset="1" stop-color="#38b86d"/>
    </linearGradient>
    <filter id="softShadow" x="-20%" y="-20%" width="140%" height="140%">
      <feDropShadow dx="0" dy="7" stdDeviation="6" flood-color="#14523f" flood-opacity=".28"/>
    </filter>
  </defs>
  <rect width="500" height="590" rx="34" fill="url(#sky)"/>
  <circle cx="72" cy="74" r="38" fill="#ffe077"/>
  <circle cx="62" cy="66" r="10" fill="#fff7bb" opacity=".75"/>
  <path d="M32 460c72-74 126-43 185-87 69-51 88-151 171-157 52-4 84 28 108 64v278H32z" fill="#5ecb7e" opacity=".88"/>
  <path d="M0 252c42-42 90-48 148-17 59 31 105 21 158-25 75-65 132-27 194 30v350H0z" fill="url(#grass)" filter="url(#softShadow)"/>
  <path d="M0 464c66-42 123-41 170 3 63 60 139 53 218-20 42-39 78-48 112-31v174H0z" fill="#2fae71"/>
  <path d="M67 515c40-22 75-20 105 6 39 33 87 29 143-12 42-31 83-35 124-12" fill="none" stroke="#1d7d5d" stroke-width="11" stroke-linecap="round" opacity=".25"/>
  <ellipse cx="379" cy="420" rx="59" ry="34" fill="#4db8ff" opacity=".78"/>
  <ellipse cx="380" cy="410" rx="43" ry="21" fill="#9ceaff" opacity=".65"/>
  <path d="M356 143c23-41 69-41 92 0z" fill="#7b8bd7"/>
  <path d="M392 92c18 19 33 37 56 51h-92z" fill="#6576c4"/>
  <path d="M379 108l12 24h-31z" fill="#fff4d4"/>
  <path d="M54 333c14-31 54-31 70 0z" fill="#7b8bd7"/>
  <path d="M86 295c14 16 25 28 38 38H54z" fill="#6576c4"/>
  <path d="M78 307l9 17H65z" fill="#fff4d4"/>
  <g opacity=".28" fill="#fff">
    <ellipse cx="118" cy="128" rx="53" ry="18"/>
    <ellipse cx="159" cy="116" rx="38" ry="15"/>
    <ellipse cx="332" cy="78" rx="49" ry="18"/>
    <ellipse cx="369" cy="67" rx="32" ry="13"/>
  </g>
  <g fill="#ffe68a" opacity=".85">
    <circle cx="116" cy="401" r="8"/>
    <circle cx="137" cy="388" r="6"/>
    <circle cx="407" cy="338" r="7"/>
    <circle cx="430" cy="325" r="5"/>
    <circle cx="214" cy="205" r="6"/>
  </g>
</svg>
