<svg xmlns="http://www.w3.org/2000/svg" viewBox="0 0 160 160">
  <defs>
    <linearGradient id="body" x1="31" y1="19" x2="132" y2="143" gradientUnits="userSpaceOnUse">
      <stop offset="0" stop-color="#7cf2d1"/>
      <stop offset="1" stop-color="#009e73"/>
    </linearGradient>
  </defs>
  <ellipse cx="80" cy="140" rx="42" ry="10" fill="#10131a" opacity=".28"/>
  <path d="M80 18c35 0 58 25 58 61 0 39-24 64-58 64S22 118 22 79c0-36 23-61 58-61z" fill="url(#body)"/>
  <path d="M40 53c-9-11-9-24-2-32 10 3 20 11 24 22z" fill="#36c59d"/>
  <path d="M120 53c9-11 9-24 2-32-10 3-20 11-24 22z" fill="#36c59d"/>
  <path d="M48 75c7-9 17-9 24 0" fill="none" stroke="#26303f" stroke-width="7" stroke-linecap="round"/>
  <path d="M88 75c7-9 17-9 24 0" fill="none" stroke="#26303f" stroke-width="7" stroke-linecap="round"/>
  <path d="M61 100c9 13 29 13 38 0" fill="#fff" stroke="#26303f" stroke-width="6" stroke-linejoin="round"/>
  <path d="M25 65l-13-8M135 65l13-8M32 37l-8-14M128 37l8-14" stroke="#fff176" stroke-width="7" stroke-linecap="round"/>
</svg>
