<svg xmlns="http://www.w3.org/2000/svg" viewBox="0 0 160 160">
  <defs>
    <linearGradient id="body" x1="32" y1="18" x2="132" y2="143" gradientUnits="userSpaceOnUse">
      <stop offset="0" stop-color="#d7c7ff"/>
      <stop offset="1" stop-color="#8b7dff"/>
    </linearGradient>
  </defs>
  <ellipse cx="80" cy="140" rx="42" ry="10" fill="#10131a" opacity=".28"/>
  <path d="M80 18c35 0 58 25 58 61 0 39-24 64-58 64S22 118 22 79c0-36 23-61 58-61z" fill="url(#body)"/>
  <path d="M43 54c-7-9-8-23-2-31 10 3 18 10 21 21z" fill="#b8a9ff"/>
  <path d="M117 54c7-9 8-23 2-31-10 3-18 10-21 21z" fill="#b8a9ff"/>
  <path d="M47 78c8 6 16 6 24 0M89 78c8 6 16 6 24 0" fill="none" stroke="#26303f" stroke-width="7" stroke-linecap="round"/>
  <path d="M68 105c8 5 16 5 24 0" fill="none" stroke="#26303f" stroke-width="7" stroke-linecap="round"/>
  <path d="M120 38h20l-18 22h20M111 17h16l-14 17h16" fill="none" stroke="#fff" stroke-width="7" stroke-linejoin="round" stroke-linecap="round"/>
</svg>
