<svg xmlns="http://www.w3.org/2000/svg" viewBox="0 0 160 160">
  <defs>
    <linearGradient id="body" x1="32" y1="18" x2="132" y2="143" gradientUnits="userSpaceOnUse">
      <stop offset="0" stop-color="#e4a2c8"/>
      <stop offset="1" stop-color="#cc79a7"/>
    </linearGradient>
  </defs>
  <ellipse cx="80" cy="140" rx="42" ry="10" fill="#10131a" opacity=".28"/>
  <path d="M80 18c35 0 58 25 58 61 0 39-24 64-58 64S22 118 22 79c0-36 23-61 58-61z" fill="url(#body)"/>
  <path d="M43 54c-7-9-8-23-2-31 10 3 18 10 21 21z" fill="#d98ab5"/>
  <path d="M117 54c7-9 8-23 2-31-10 3-18 10-21 21z" fill="#d98ab5"/>
  <path d="M46 73c6-6 15-8 24-4" fill="none" stroke="#26303f" stroke-width="6" stroke-linecap="round"/>
  <path d="M90 69c9-4 18-2 24 4" fill="none" stroke="#26303f" stroke-width="6" stroke-linecap="round"/>
  <circle cx="58" cy="82" r="7" fill="#26303f"/>
  <circle cx="102" cy="82" r="7" fill="#26303f"/>
  <path d="M68 109c8-7 16-7 24 0" fill="none" stroke="#26303f" stroke-width="7" stroke-linecap="round"/>
  <path d="M119 92c10 12 4 26-8 24-9-8-6-20 8-24z" fill="#9bd8f4"/>
</svg>
