<svg xmlns="http://www.w3.org/2000/svg" viewBox="0 0 160 160">
  <defs>
    <linearGradient id="body" x1="30" y1="18" x2="132" y2="144" gradientUnits="userSpaceOnUse">
      <stop offset="0" stop-color="#9bd8f4"/>
      <stop offset="1" stop-color="#0072b2"/>
    </linearGradient>
  </defs>
  <ellipse cx="80" cy="140" rx="42" ry="10" fill="#10131a" opacity=".28"/>
  <path d="M80 18c35 0 58 25 58 61 0 39-24 64-58 64S22 118 22 79c0-36 23-61 58-61z" fill="url(#body)"/>
  <path d="M43 54c-7-9-8-23-2-31 10 3 18 10 21 21z" fill="#56b4e9"/>
  <path d="M117 54c7-9 8-23 2-31-10 3-18 10-21 21z" fill="#56b4e9"/>
  <circle cx="56" cy="75" r="13" fill="#fff"/>
  <circle cx="104" cy="75" r="13" fill="#fff"/>
  <circle cx="56" cy="75" r="7" fill="#26303f"/>
  <circle cx="104" cy="75" r="7" fill="#26303f"/>
  <circle cx="80" cy="106" r="12" fill="#26303f"/>
  <path d="M31 38l-16-5M129 38l16-5M80 10V0" stroke="#fff176" stroke-width="7" stroke-linecap="round"/>
</svg>
